<svg xmlns="http://www.w3.org/2000/svg" width="84" height="83" viewBox="0 0 84 83" fill="none">
<path d="M61.7377 18.5917C58.2066 15.5891 54.0279 13.4456 49.5294 12.3293C45.0308 11.2129 40.3347 11.1541 35.8096 12.1575C31.2845 13.1608 27.0534 15.199 23.4483 18.1122C19.8432 21.0254 16.9622 24.7343 15.0312 28.9479C13.1002 33.1615 12.1718 37.7653 12.3189 42.398C12.466 47.0306 13.6845 51.5662 15.8788 55.6489C18.0731 59.7316 21.1836 63.2503 24.9662 65.9289C28.7488 68.6076 33.1007 70.3734 37.6803 71.0877L39.9264 56.6881C37.5715 56.3208 35.3337 55.4128 33.3887 54.0354C31.4436 52.658 29.8442 50.8487 28.7158 48.7493C27.5875 46.65 26.9609 44.3177 26.8853 41.9356C26.8097 39.5534 27.2871 37.1861 28.28 35.0194C29.2729 32.8527 30.7544 30.9456 32.6082 29.4476C34.4619 27.9496 36.6376 26.9016 38.9644 26.3856C41.2913 25.8697 43.706 25.8999 46.0192 26.474C48.3324 27.048 50.4812 28.1502 52.2969 29.6942L61.7377 18.5917Z" fill="#F2F6FC"/>
<path d="M12.3106 40.8089C12.1845 46.741 13.8204 52.5772 17.0113 57.5796C20.2022 62.582 24.8048 66.5258 30.2371 68.9124C35.6694 71.2989 41.6875 72.021 47.5302 70.9874C53.3729 69.9537 58.7779 67.2107 63.0616 63.1052C67.3454 58.9996 70.3155 53.7161 71.5964 47.9225C72.8773 42.129 72.4115 36.0857 70.2578 30.557C68.1041 25.0282 64.3593 20.2622 59.497 16.8617C54.6347 13.4612 48.8732 11.5789 42.9411 11.4529L42.6315 26.0233C45.6818 26.0881 48.6444 27.056 51.1447 28.8046C53.645 30.5532 55.5706 33.0039 56.678 35.8468C57.7854 38.6898 58.025 41.7973 57.3663 44.7763C56.7076 47.7554 55.1804 50.4723 52.9776 52.5834C50.7749 54.6945 47.9956 56.105 44.9912 56.6365C41.9869 57.168 38.8924 56.7967 36.099 55.5695C33.3057 54.3423 30.939 52.3144 29.2982 49.7421C27.6574 47.1698 26.8162 44.1688 26.881 41.1184L12.3106 40.8089Z" fill="#2ED480"/>
</svg>