<svg xmlns="http://www.w3.org/2000/svg" width="73" height="73" viewBox="0 0 73 73" fill="none">
<path d="M34.4686 6.11297C29.8437 6.41952 25.3528 7.79352 21.3481 10.1272C17.3434 12.4608 13.934 15.6907 11.3872 19.5633C8.84041 23.4359 7.2256 27.846 6.66943 32.4475C6.11327 37.0491 6.63089 41.7169 8.18168 46.0848C9.73247 50.4526 12.2743 54.4018 15.6076 57.6224C18.941 60.8429 22.9752 63.2473 27.3939 64.6469C31.8125 66.0465 36.4954 66.4032 41.075 65.689C45.6547 64.9749 50.0066 63.2093 53.7893 60.5308L45.3673 48.6369C43.4222 50.0142 41.1844 50.9221 38.8295 51.2893C36.4746 51.6566 34.0667 51.4731 31.7946 50.7535C29.5225 50.0338 27.448 48.7974 25.734 47.1414C24.0199 45.4853 22.7129 43.4546 21.9155 41.2086C21.1181 38.9626 20.8519 36.5624 21.1379 34.1963C21.4239 31.8301 22.2542 29.5624 23.5638 27.5711C24.8734 25.5798 26.6265 23.9189 28.6858 22.7189C30.745 21.519 33.0543 20.8124 35.4324 20.6548L34.4686 6.11297Z" fill="#F2F6FC"/>
<path d="M21.7154 62.178C26.1532 64.6808 31.1554 66.0122 36.2503 66.0466C41.3452 66.081 46.3649 64.8172 50.8361 62.3744C55.3073 59.9316 59.0827 56.3903 61.8064 52.0844C64.53 47.7785 66.1121 42.8499 66.4036 37.7633C66.695 32.6766 65.6861 27.5995 63.4721 23.0107C61.258 18.4219 57.9118 14.4726 53.7488 11.5352C49.5858 8.59772 44.7433 6.7689 39.6779 6.22116C34.6124 5.67342 29.4909 6.4248 24.7962 8.40445L30.4588 21.8331C32.8729 20.8151 35.5064 20.4288 38.1111 20.7104C40.7158 20.9921 43.2059 21.9325 45.3465 23.4429C47.4871 24.9534 49.2078 26.9842 50.3463 29.3438C51.4848 31.7034 52.0035 34.3141 51.8537 36.9297C51.7038 39.5453 50.8903 42.0796 49.4898 44.2937C48.0893 46.5079 46.1479 48.3288 43.8488 49.5849C41.5496 50.841 38.9685 51.4909 36.3486 51.4732C33.7288 51.4555 31.1566 50.7709 28.8746 49.4839L21.7154 62.178Z" fill="#FD8539"/>
</svg>