<svg xmlns="http://www.w3.org/2000/svg" width="73" height="73" viewBox="0 0 73 73" fill="none">
  <path d="M34.9687 6.11297C30.3438 6.41952 25.8529 7.79352 21.8482 10.1272C17.8436 12.4608 14.4341 15.6907 11.8873 19.5633C9.34054 23.4359 7.72572 27.846 7.16956 32.4475C6.61339 37.0491 7.13101 41.7169 8.6818 46.0848C10.2326 50.4526 12.7744 54.4018 16.1077 57.6224C19.4411 60.8429 23.4753 63.2473 27.894 64.6469C32.3127 66.0465 36.9955 66.4032 41.5752 65.689C46.1548 64.9749 50.5067 63.2093 54.2894 60.5308L45.8675 48.6369C43.9224 50.0142 41.6846 50.9221 39.3297 51.2893C36.9748 51.6566 34.5668 51.4731 32.2947 50.7535C30.0226 50.0338 27.9481 48.7974 26.2341 47.1414C24.52 45.4853 23.213 43.4546 22.4156 41.2086C21.6182 38.9626 21.352 36.5624 21.638 34.1963C21.924 31.8301 22.7543 29.5624 24.0639 27.5711C25.3735 25.5798 27.1267 23.9189 29.1859 22.7189C31.2451 21.519 33.5544 20.8124 35.9326 20.6548L34.9687 6.11297Z" fill="#F2F6FC"/>
  <path d="M14.6386 56.0991C18.8079 60.7388 24.3197 63.9635 30.4072 65.3245C36.4946 66.6855 42.8549 66.1151 48.6031 63.6927C54.3513 61.2703 59.2014 57.1164 62.4787 51.8089C65.7559 46.5015 67.2973 40.3044 66.8882 34.0801C66.4792 27.8558 64.1402 21.9138 60.1966 17.0808C56.2529 12.2478 50.9009 8.76433 44.8852 7.115C38.8694 5.46566 32.4892 5.73252 26.6321 7.87844C20.7751 10.0244 15.7327 13.9426 12.2064 19.088L24.228 27.3267C26.0412 24.6809 28.6341 22.6661 31.6458 21.5626C34.6576 20.4592 37.9383 20.322 41.0317 21.1701C44.125 22.0182 46.8771 23.8094 48.9049 26.2946C50.9328 28.7797 52.1355 31.8352 52.3459 35.0358C52.5562 38.2364 51.7636 41.4229 50.0784 44.1521C48.3932 46.8812 45.8993 49.0172 42.9435 50.2628C39.9877 51.5084 36.7172 51.8017 33.587 51.1019C30.4567 50.402 27.6225 48.7439 25.4786 46.3581L14.6386 56.0991Z" fill="#FE6D8E"/>
</svg>