<svg xmlns="http://www.w3.org/2000/svg" width="18" height="16" viewBox="0 0 18 16" fill="none">
  <path d="M18 2.44998C17.325 2.74998 16.65 2.97498 15.9 3.04998C16.65 2.59998 17.25 1.84998 17.55 1.02498C16.8 1.47498 16.05 1.77498 15.225 1.92498C14.55 1.17498 13.575 0.724976 12.525 0.724976C10.5 0.724976 8.85 2.37498 8.85 4.39998C8.85 4.69998 8.85 4.99998 8.925 5.22498C5.775 5.07498 3.075 3.57498 1.275 1.32498C0.9 1.92498 0.75 2.52498 0.75 3.19998C0.75 4.47498 1.425 5.59998 2.4 6.27498C1.8 6.27498 1.2 6.12498 0.75 5.82498C0.75 5.82498 0.75 5.82498 0.75 5.89998C0.75 7.69998 2.025 9.19998 3.675 9.49998C3.375 9.57498 3.075 9.64997 2.7 9.64997C2.475 9.64997 2.25 9.64998 2.025 9.57498C2.475 11.075 3.825 12.125 5.475 12.125C4.2 13.1 2.625 13.7 0.9 13.7C0.6 13.7 0.3 13.7 0 13.625C1.65 14.675 3.6 15.275 5.625 15.275C12.45 15.275 16.125 9.64997 16.125 4.77498C16.125 4.62498 16.125 4.47498 16.125 4.32498C16.875 3.79998 17.475 3.12498 18 2.44998Z" fill="#55ACEE"/>
</svg>